<svg xmlns="http://www.w3.org/2000/svg" xmlns:xlink="http://www.w3.org/1999/xlink" viewBox="-960 -89 2430 727">
  <defs>
    <linearGradient id="linear-gradient" x1="0.5" y1="1" x2="0.5" y2="0.001" gradientUnits="objectBoundingBox">
      <stop offset="0" stop-color="gray" stop-opacity="0.251"/>
      <stop offset="0.54" stop-color="gray" stop-opacity="0.122"/>
      <stop offset="1" stop-color="gray" stop-opacity="0.102"/>
    </linearGradient>
    <linearGradient id="linear-gradient-2" x1="0.5" y1="1" x2="0.5" y2="0" xlink:href="#linear-gradient"/>
  </defs>
  <g id="phoneGuy" transform="translate(-905.349 -248.328)">
    <g id="Group_7" data-name="Group 7" transform="translate(248 5)">
      <g id="undraw_product_teardown_elol" transform="translate(525.091 147.999)">
        <path id="Path_25" data-name="Path 25" d="M474.295,184.589c13.279,0,24.048,11.5,24.048,25.688s-10.769,25.688-24.048,25.688a23.439,23.439,0,0,1-18.6-9.34V297.9h76.919a23.219,23.219,0,0,1-9.036-18.2c0-13.195,11.47-23.887,25.628-23.887a26.584,26.584,0,0,1,17.26,6.213V163.55a20.329,20.329,0,0,0-20.286-20.329H517.445v3.533A16.753,16.753,0,0,1,500.7,163.508h-44.96v30.43a23.456,23.456,0,0,1,18.554-9.349Z" transform="translate(-116.246 -40.368)" fill="#e6e6e6"/>
        <path id="Path_32" data-name="Path 32" d="M551.045,471.759a7.05,7.05,0,0,1,3.3-4.032,20.016,20.016,0,0,0,6.382-5.773V445.361c-3.9-5.6-11.6-9.425-20.472-9.425-12.806,0-23.177,7.937-23.177,17.751,0,4.615,2.308,8.816,6.077,11.969a23.353,23.353,0,0,0,4.725,3.018l.1.161a7.219,7.219,0,0,1,1.411,8.453H454.828V546.6a23.168,23.168,0,0,1,18.4-9.3c13.178,0,23.853,11.5,23.853,25.671s-10.676,25.679-23.853,25.679a23.169,23.169,0,0,1-18.4-9.3V635.3h85.566a20.337,20.337,0,0,0,20.337-20.286V477.3h-8.774A5.917,5.917,0,0,1,551.045,471.759Z" transform="translate(-112.246 -35.368)" fill="#e6e6e6"/>
        <path id="Path_20" data-name="Path 20" d="M341.487,279.952c0-13.178,11.5-23.862,25.679-23.862s25.671,10.684,25.671,23.862a23.16,23.16,0,0,1-9.087,18.173h65.17V223.15a5.866,5.866,0,0,1,5.984-1.268,7.05,7.05,0,0,1,4.032,3.3c3.237,5.52,8.334,9.078,14.065,9.078,9.788,0,17.751-10.371,17.751-23.177S482.823,187.919,473,187.919c-4.615,0-8.816,2.3-11.969,6.077a22.9,22.9,0,0,0-3.018,4.725l-.161,1.006a7.819,7.819,0,0,1-8.934.262V163.9H400.452a16.745,16.745,0,0,1-16.7-16.745v-3.533H356.2a20.337,20.337,0,0,0-20.329,20.362V298.125h14.657a23.16,23.16,0,0,1-9.044-18.173Z" transform="translate(-117.246 -40.368)" fill="#e6e6e6"/>
        <path id="Path_7" data-name="Path 7" d="M454.752,574.044a7,7,0,0,1,4.032,3.3c3.246,5.52,8.334,9.078,14.065,9.078,9.788,0,17.751-10.371,17.751-23.177s-7.954-23.126-17.717-23.126c-4.607,0-8.808,2.3-11.961,6.077a22.9,22.9,0,0,0-3.018,4.725l-.169,1.006a7.808,7.808,0,0,1-8.926.262V477.118h-73.3a5.917,5.917,0,0,1-.888-5.528,7.067,7.067,0,0,1,3.305-4.032c5.52-3.246,9.087-8.334,9.087-14.065,0-9.788-10.38-17.751-23.177-17.751s-23.177,7.937-23.177,17.751c0,4.607,2.308,8.816,6.086,11.969a23.036,23.036,0,0,0,4.717,3.009l.1.169a7.21,7.21,0,0,1,1.412,8.453H335.731V615.183a20.337,20.337,0,0,0,20.337,20.337h92.768V575.312A5.841,5.841,0,0,1,454.752,574.044Z" transform="translate(-117.246 -35.368)" fill="#e6e6e6"/>
        <path id="Path_12" data-name="Path 12" d="M337.878,455.978c0-13.178,11.5-23.853,25.671-23.853s25.679,10.676,25.679,23.853a23.169,23.169,0,0,1-9.053,18.215h68.8V400.123a5.917,5.917,0,0,1,5.976-1.268,7.041,7.041,0,0,1,4.04,3.3c3.237,5.52,8.326,9.078,14.065,9.078,9.788,0,17.751-10.371,17.751-23.169s-7.929-23.177-17.751-23.177c-4.615,0-8.816,2.308-11.969,6.077a23.351,23.351,0,0,0-3.018,4.725l-.161.1a7.219,7.219,0,0,1-8.935,1.192v-75.06H378.408a5.917,5.917,0,0,1-.888-5.528,7.024,7.024,0,0,1,3.3-4.032c5.52-3.237,9.078-8.334,9.078-14.065,0-9.788-10.371-17.751-23.169-17.751s-23.177,7.937-23.177,17.751c0,4.615,2.308,8.816,6.077,11.969a23.355,23.355,0,0,0,4.725,3.018l.1.161a7.21,7.21,0,0,1,1.412,8.453H335.452v172.29H346.93A23.169,23.169,0,0,1,337.878,455.978Z" transform="translate(-117.246 -39.368)" fill="#e6e6e6"/>
        <g id="upperright" transform="translate(-50 87)">
          <path id="Path_106" data-name="Path 106" d="M474.295,184.589c13.279,0,24.048,11.5,24.048,25.688s-10.769,25.688-24.048,25.688a23.439,23.439,0,0,1-18.6-9.34V297.9h76.919a23.219,23.219,0,0,1-9.036-18.2c0-13.195,11.47-23.887,25.628-23.887a26.584,26.584,0,0,1,17.26,6.213V163.55a20.329,20.329,0,0,0-20.286-20.329H517.445v3.533A16.753,16.753,0,0,1,500.7,163.508h-44.96v30.43a23.456,23.456,0,0,1,18.554-9.349Z" transform="translate(-64.246 -126.368)" fill="#61b0ff"/>
        </g>
        <g id="lowerright" transform="translate(15 -92)">
          <path id="Path_108" data-name="Path 108" d="M551.045,471.759a7.05,7.05,0,0,1,3.3-4.032,20.016,20.016,0,0,0,6.382-5.773V445.361c-3.9-5.6-11.6-9.425-20.472-9.425-12.806,0-23.177,7.937-23.177,17.751,0,4.615,2.308,8.816,6.077,11.969a23.353,23.353,0,0,0,4.725,3.018l.1.161a7.219,7.219,0,0,1,1.411,8.453H454.828V546.6a23.168,23.168,0,0,1,18.4-9.3c13.178,0,23.853,11.5,23.853,25.671s-10.676,25.679-23.853,25.679a23.169,23.169,0,0,1-18.4-9.3V635.3h85.566a20.337,20.337,0,0,0,20.337-20.286V477.3h-8.774A5.917,5.917,0,0,1,551.045,471.759Z" transform="translate(-127.246 56.632)" fill="#61b0ff"/>
        </g>
        <g id="upperleft" transform="translate(237 91)">
          <path id="Path_104" data-name="Path 104" d="M341.487,279.952c0-13.178,11.5-23.862,25.679-23.862s25.671,10.684,25.671,23.862a23.16,23.16,0,0,1-9.087,18.173h65.17V223.15a5.866,5.866,0,0,1,5.984-1.268,7.05,7.05,0,0,1,4.032,3.3c3.237,5.52,8.334,9.078,14.065,9.078,9.788,0,17.751-10.371,17.751-23.177S482.823,187.919,473,187.919c-4.615,0-8.816,2.3-11.969,6.077a22.9,22.9,0,0,0-3.018,4.725l-.161,1.006a7.819,7.819,0,0,1-8.934.262V163.9H400.452a16.745,16.745,0,0,1-16.7-16.745v-3.533H356.2a20.337,20.337,0,0,0-20.329,20.362V298.125h14.657a23.16,23.16,0,0,1-9.044-18.173Z" transform="translate(-352.246 -133.368)" fill="#61b0ff"/>
        </g>
        <g id="middleleft" transform="translate(46 -7)">
          <path id="Path_105" data-name="Path 105" d="M337.878,455.978c0-13.178,11.5-23.853,25.671-23.853s25.679,10.676,25.679,23.853a23.169,23.169,0,0,1-9.053,18.215h68.8V400.123a5.917,5.917,0,0,1,5.976-1.268,7.041,7.041,0,0,1,4.04,3.3c3.237,5.52,8.326,9.078,14.065,9.078,9.788,0,17.751-10.371,17.751-23.169s-7.929-23.177-17.751-23.177c-4.615,0-8.816,2.308-11.969,6.077a23.351,23.351,0,0,0-3.018,4.725l-.161.1a7.219,7.219,0,0,1-8.935,1.192v-75.06H378.408a5.917,5.917,0,0,1-.888-5.528,7.024,7.024,0,0,1,3.3-4.032c5.52-3.237,9.078-8.334,9.078-14.065,0-9.788-10.371-17.751-23.169-17.751s-23.177,7.937-23.177,17.751c0,4.615,2.308,8.816,6.077,11.969a23.355,23.355,0,0,0,4.725,3.018l.1.161a7.21,7.21,0,0,1,1.412,8.453H335.452v172.29H346.93A23.169,23.169,0,0,1,337.878,455.978Z" transform="translate(-165.246 -31.368)" fill="#61b0ff"/>
        </g>
        <g id="lowerleft" transform="translate(59 -123)">
          <path id="Path_107" data-name="Path 107" d="M454.752,574.044a7,7,0,0,1,4.032,3.3c3.246,5.52,8.334,9.078,14.065,9.078,9.788,0,17.751-10.371,17.751-23.177s-7.954-23.126-17.717-23.126c-4.607,0-8.808,2.3-11.961,6.077a22.9,22.9,0,0,0-3.018,4.725l-.169,1.006a7.808,7.808,0,0,1-8.926.262V477.118h-73.3a5.917,5.917,0,0,1-.888-5.528,7.067,7.067,0,0,1,3.305-4.032c5.52-3.246,9.087-8.334,9.087-14.065,0-9.788-10.38-17.751-23.177-17.751s-23.177,7.937-23.177,17.751c0,4.607,2.308,8.816,6.086,11.969a23.036,23.036,0,0,0,4.717,3.009l.1.169a7.21,7.21,0,0,1,1.412,8.453H335.731V615.183a20.337,20.337,0,0,0,20.337,20.337h92.768V575.312A5.841,5.841,0,0,1,454.752,574.044Z" transform="translate(-175.246 87.632)" fill="#61b0ff"/>
        </g>
        <ellipse id="Ellipse_1" data-name="Ellipse 1" cx="100.485" cy="17.286" rx="100.485" ry="17.286" transform="translate(536.523 620.314)" fill="#6c63ff" opacity="0.1"/>
        <ellipse id="Ellipse_2" data-name="Ellipse 2" cx="148.767" cy="10.524" rx="148.767" ry="10.524" transform="translate(183.997 610.171)" fill="#6c63ff" opacity="0.1"/>
        <line id="Line_1" data-name="Line 1" x1="6.365" transform="translate(132.259 149.536)" fill="#6c63ff"/>
        <path id="Path_6" data-name="Path 6" d="M356.068,635.52a20.337,20.337,0,0,1-20.337-20.337V477.118H319.916v139a32.965,32.965,0,0,0,32.965,32.965h95.954V635.563Z" transform="translate(-114.246 -34.368)" fill="#8076e6"/>
        <rect id="Rectangle_6" data-name="Rectangle 6" width="2.51" height="4.091" transform="translate(202.88 263.477)" fill="#8076e6"/>
        <rect id="Rectangle_7" data-name="Rectangle 7" width="13.719" height="4.091" transform="translate(207.487 263.477)" fill="#8076e6"/>
        <rect id="Rectangle_8" data-name="Rectangle 8" width="2.096" height="4.091" transform="translate(205.391 263.477)" fill="#8076e6"/>
        <path id="Path_8" data-name="Path 8" d="M453.983,478.7" transform="translate(-114.246 -34.368)" fill="#6c63ff"/>
        <path id="Path_9" data-name="Path 9" d="M319.062,321.691h.575V301.928H317.1v17.827a1.927,1.927,0,0,0,1.961,1.936Z" transform="translate(-114.246 -34.368)" fill="#8076e6"/>
        <path id="Path_10" data-name="Path 10" d="M335.452,301.928H321.733v17.827a1.936,1.936,0,0,1-1.944,1.936h-.152v152.5h15.815Z" transform="translate(-114.246 -34.368)" fill="#8076e6"/>
        <path id="Path_11" data-name="Path 11" d="M319.637,321.691h.152a1.936,1.936,0,0,0,1.944-1.936V301.928h-2.1Z" transform="translate(-114.246 -34.368)" fill="#8076e6"/>
        <path id="Path_13" data-name="Path 13" d="M322.156,287.17a1.936,1.936,0,0,0-1.944-1.936h-.152v12.611h2.1Z" transform="translate(-114.246 -34.368)" fill="#8076e6"/>
        <path id="Path_14" data-name="Path 14" d="M319.983,198.7h-.423a1.936,1.936,0,0,0-1.936,1.936v16.905a1.944,1.944,0,0,0,1.936,1.936h.5V198.7Z" transform="translate(-114.246 -34.368)" fill="#8076e6"/>
        <path id="Path_15" data-name="Path 15" d="M319.409,236.716a1.944,1.944,0,0,0-1.944,1.936v32.281a1.944,1.944,0,0,0,1.944,1.936h.651V236.716Z" transform="translate(-114.246 -34.368)" fill="#8076e6"/>
        <path id="Path_16" data-name="Path 16" d="M320.059,285.513h-.549a1.936,1.936,0,0,0-1.936,1.936v10.676h2.536Z" transform="translate(-114.246 -34.368)" fill="#8076e6"/>
        <path id="Path_17" data-name="Path 17" d="M320.059,163.018V198.7a1.927,1.927,0,0,1,1.86,1.927v16.905a1.936,1.936,0,0,1-1.86,1.927v17.26h.3a1.936,1.936,0,0,1,1.936,1.936v32.281a1.936,1.936,0,0,1-1.936,1.936h-.313v12.679h.152a1.944,1.944,0,0,1,1.944,1.936v10.633h13.719V163.981a20.337,20.337,0,0,1,20.329-20.337H383.75v3.533a16.745,16.745,0,0,0,16.745,16.745h48.493V152.866H426.664a3.288,3.288,0,0,1-3.271-3.254v-.71a3.28,3.28,0,0,1,3.271-3.271h22.281v-15.57H353.008a32.965,32.965,0,0,0-32.948,32.957Z" transform="translate(-114.246 -34.368)" fill="#8076e6"/>
        <path id="Path_18" data-name="Path 18" d="M321.919,217.529V200.624a1.927,1.927,0,0,0-1.86-1.927v20.751a1.936,1.936,0,0,0,1.86-1.919Z" transform="translate(-114.246 -34.368)" fill="#8076e6"/>
        <path id="Path_19" data-name="Path 19" d="M322.308,270.933V238.652a1.936,1.936,0,0,0-1.936-1.936h-.313v36.152h.3a1.936,1.936,0,0,0,1.953-1.936Z" transform="translate(-114.246 -34.368)" fill="#8076e6"/>
        <path id="Path_21" data-name="Path 21" d="M426.664,145.605a3.28,3.28,0,0,0-3.271,3.271v.735a3.288,3.288,0,0,0,3.271,3.28h22.281v-7.261Z" transform="translate(-114.246 -34.368)" fill="#e6e8ec"/>
        <path id="Path_22" data-name="Path 22" d="M577.459,247.73V297.9h5.706v-52.2H580.08A2.381,2.381,0,0,0,577.459,247.73Z" transform="translate(-114.246 -34.368)" fill="#8076e6"/>
        <rect id="Rectangle_9" data-name="Rectangle 9" width="6.762" height="15.215" transform="translate(341.495 95.329)" fill="#8076e6"/>
        <rect id="Rectangle_10" data-name="Rectangle 10" width="6.762" height="10.988" transform="translate(341.495 118.151)" fill="#8076e6"/>
        <rect id="Rectangle_11" data-name="Rectangle 11" width="6.762" height="7.607" transform="translate(341.495 110.544)" fill="#e6e8ec"/>
        <path id="Path_23" data-name="Path 23" d="M584.331,247.832h-1.589v50.014h3.525v-48.07a1.944,1.944,0,0,0-1.936-1.944Z" transform="translate(-114.246 -34.368)" fill="#8076e6"/>
        <path id="Path_24" data-name="Path 24" d="M462.495,144.912c1.8.406,3.381,3.685,3.381,3.685v.71s-1.589,3.271-3.381,3.212h0v10.988h38.2a16.753,16.753,0,0,0,16.745-16.753v-3.533h28.739a20.329,20.329,0,0,1,20.286,20.329v98.482a22.585,22.585,0,0,1,0,35.29v.566H578.3V248.28a.245.245,0,0,1,.254-.245h3.973v-86.64a31.689,31.689,0,0,0-31.7-31.7H461.658v15.215Zm12.8-.076a4.116,4.116,0,1,1-4.116,4.116,4.116,4.116,0,0,1,4.116-4.116Z" transform="translate(-114.246 -34.368)" fill="#8076e6"/>
        <path id="Path_26" data-name="Path 26" d="M462.495,152.52a3.381,3.381,0,0,0,3.381-3.212v-.71a4.226,4.226,0,0,0-3.381-3.685h-.845v7.607Z" transform="translate(-114.246 -34.368)" fill="#e6e8ec"/>
        <circle id="Ellipse_3" data-name="Ellipse 3" cx="4.116" cy="4.116" r="4.116" transform="matrix(0.987, -0.16, 0.16, 0.987, 356.324, 111.16)" fill="#e6e8ec"/>
        <path id="Path_27" data-name="Path 27" d="M560.732,470.4v-8.453a14.124,14.124,0,0,0,0-16.6Z" transform="translate(-114.246 -34.368)" fill="#3a3768"/>
        <path id="Path_103" data-name="Path 103" d="M0,0H15.815V3.635H0Z" transform="translate(446.486 439.292)" fill="#8076e6"/>
        <path id="Path_30" data-name="Path 30" d="M563.428,453.662a14.428,14.428,0,0,0-2.7-8.3v16.593a14.462,14.462,0,0,0,2.7-8.292Z" transform="translate(-114.246 -34.368)" fill="#61b0ff"/>
        <path id="Path_31" data-name="Path 31" d="M576.546,477.3V615.843a32.965,32.965,0,0,1-32.965,32.965H454.828V635.284h85.566a20.337,20.337,0,0,0,20.337-20.337V477.3Z" transform="translate(-114.246 -34.368)" fill="#8076e6"/>
        <path id="Path_33" data-name="Path 33" d="M711.865,261.863c4.717-2.122,8.208-5.7,9.4-10.278a12.962,12.962,0,0,0,.321-1.691,15.072,15.072,0,0,0,.541-1.614c1.192-4.6-.118-9.357-3.229-13.423l-6.179,23.667h0Z" transform="translate(-114.246 -34.368)" fill="url(#linear-gradient)"/>
        <path id="Path_34" data-name="Path 34" d="M854.495,252.979c-.964-5.655-18.816-17.9-18.816-17.9s-7.886-4.226-12.062-9.112c-2.671-3.111-3.508-3.077-3.761-2.654a1.268,1.268,0,0,0-.575-.194c-.169-.118-.33-.228-.482-.355h0a1.141,1.141,0,0,0-.668-1.158c-.2-.118-.406-.27-.609-.414-1.352-2.274-1.834-5.494-1.995-8.3-.2-3.542-4.226-2.654-5.6-2.257-.947-1.775-1.868-3.618-2.739-5.46a10.022,10.022,0,0,0,.955-1.9c2.485-5.4,1.944-11.6,3.026-17.311.778-4.133,2.4-8.453,2.079-12.476v-.237a10.693,10.693,0,0,0-.685-2.941c-.718-1.809-1.969-3.381-2.536-5.249-.9-2.73-.33-5.739-1.082-8.5-.938-3.5-3.9-6.2-7.244-7.751s-7.075-2.079-10.743-2.536c-9.171-1.15-18.917-1.834-27.285,2.02a4.9,4.9,0,0,1-2.536.685,7.786,7.786,0,0,1-2.316-1.074c-2.248-1.116-5.072-.406-7.083,1.082a20.368,20.368,0,0,0-4.708,5.714,17.786,17.786,0,0,1-4.86,5.587c-2.443,1.631-5.672,2.181-7.607,4.378a7.075,7.075,0,0,0-1.572,3.652v-.059a4.63,4.63,0,0,0,0,.482v1.775a23.073,23.073,0,0,0,1.631,6,8.35,8.35,0,0,0,2.215,3.77c2.941,2.392,7.607.135,11.157,1.471.313.11.609.254.9.389a1.691,1.691,0,0,1-.135.414,28.057,28.057,0,0,0-1.141,7.954c0,15.874,13.178,28.739,29.432,28.739a16.1,16.1,0,0,0,1.809-.068c.084.313.177.634.254.938a31.163,31.163,0,0,1,.845,10.752l-.177-1.572a7.8,7.8,0,0,0-1.226-.465,10.938,10.938,0,0,0-3.652-.558c-4-.051-10.016,1.555-16.44,9.349,0,0-8.2,4.556-10.608,5.655a1.133,1.133,0,0,0-.448.507h0s-10.963,16.559-12.1,22.856-2.536,13.524-2.536,13.524-2.739,8.165-4.505,11.783-3.381,7.066-3.533,8.639.642,5.021-2.739,7.219-4.226,8.165-4.226,8.165-1.691,1.589-4.083,3.6h-.084l8.833-33.87,1.581.4a2.029,2.029,0,0,0,2.079-.71,1.884,1.884,0,0,0,.346-.7l1.784-6.864.718-2.73.144-.558,1.04-3.981-3.516-.845-4.116-1.023-11.631-2.933,1.014-3.888h0l.845-3.3h0l5.317-20.4h0l.845-3.288a27.861,27.861,0,0,0-15.384-9.585c-12.763-3.17-25.121,1.986-27.606,11.512a12.986,12.986,0,0,0-.33,1.691,12.341,12.341,0,0,0-.533,1.606,13.593,13.593,0,0,0-.338,5.072q.051.414.127.845a17.4,17.4,0,0,0,3.237,7.244,23.092,23.092,0,0,0,3.947,4.1l.059.186a7.717,7.717,0,0,1,1.107,3.381c0,.169,0,.347,0,.524a7.777,7.777,0,0,1-1.014,1.42l-77.984-19.382-.845,3.288h0l-17.565,67.494h0a25.458,25.458,0,0,1,7.607-4.015,24.777,24.777,0,0,1,3.3-.845l.4-.068a23.557,23.557,0,0,1,9.45.389,24.181,24.181,0,0,1,17.936,20.717,25.2,25.2,0,0,1,.211,3.761,26.5,26.5,0,0,1-.507,4.776c-4.226,12.831-17.21,20.582-29.821,17.446a23.667,23.667,0,0,1-15.976-13.651l-.845,3.3h0L559.4,415.346l69.067,17.176h0l.744-3.322h.11a22.949,22.949,0,0,1-4.767-18.275.966.966,0,0,1,.11-.321c.085-.245.178-.482.271-.718a23.277,23.277,0,0,1,1.691-3.339c.338-.549.693-1.082,1.073-1.6q.355-.482.735-.938a24.015,24.015,0,0,1,4.133-3.939l.49-.355c.558-.4,1.133-.778,1.69-1.133.347-.2.7-.406,1.057-.592a27.412,27.412,0,0,1,13.287-3.17,29.17,29.17,0,0,1,6.593.845A27.336,27.336,0,0,1,671.985,407a24.691,24.691,0,0,1,1.386,2.367,23.143,23.143,0,0,1,2.392,7.726,21.884,21.884,0,0,1-.169,6.466,23.008,23.008,0,0,1-8.943,11.572l-.845,3.178h.093l-.127.093-.845,3.17L680.7,445.5l22.34-85.414c6.027-.7,9.112-3.381,9.112-3.77s7.244-4.4,11.259-5.5c1.995-.541,4.3-.93,6.137-1.319-2.164,10.743-4.226,21.132-4.04,21.74.059.237.448-.135,1.04-.947a4.559,4.559,0,0,0-.076.947c0,.161.228.042.524-.287l-.042.2s-12.544,24.268-13.524,27.048.237,9.9,4.1,12.256a8.265,8.265,0,0,1,1.978,1.75l-.456.9c-1.437,2.916-2.713,6.162-2.485,8.182a11.081,11.081,0,0,1-1.69,7.3s-10.862,33.565-10.617,43.227-3.863,30.861-3.863,30.861-4.463,13.659-1.809,17.548,5.672,20.853,5.672,20.853,2.054,3.888,1.927,7.185,1.936,9.3,1.936,9.3l6.762,24.377s-.727,6.483,1.809,11.073,2.291,3.178,1.082,11.191,1.454,15.426,5.79,17.751a2.65,2.65,0,0,1,1.251,3.668h0c-1.107-.431-2.029,1.86-2.578,3.711l-.558.532.372.093c-.237.845-.372,1.555-.372,1.555s-11.335,9.425-12.062,12.84-8.689,5.182-8.689,5.182-12.062,3.3-15.215,4.945a5.748,5.748,0,0,0-3.33,4.573,12.547,12.547,0,0,0,.44,4.615c1.2,4.826,18.089,5.3,26.2,4.007s24.842-6.01,24.842-6.01,17.615-1.691,22.822-3.77,1.082-7.54,1.082-7.54v-.507c.127-1.969.49-9.112-.761-10.988-.938-1.454-.913-5.072-.778-7.371,3.525-6.339-4.04-25.358-4.04-25.358s1.445-18.6.482-21.318-5.072-25.8-5.072-25.8-2.536-10.481-1.564-12.248-.609-6.838-.609-6.838-4.133-5.638-3.761-7.413-1.209-4.945-1.209-4.945,12.307-18.376,11.217-21.791.49-8.951.49-8.951,1.547-2.6,3.381-5.722c2.282-3.821,5.072-8.393,5.984-9.822,1.183-1.817,4.032-9.551,5.621-14.006.676-1.893,1.133-3.2,1.133-3.2s1.927,34.656,3.618,38.164S776.13,533.7,776.13,533.7a19.12,19.12,0,0,1,1.209,7.776C777.1,545.829,781.2,564.8,781.2,564.8s1.809,13.423.6,16.956-.237,29.584-.237,29.584-6.635,5.072-8.326,8.951.237,14.488.237,14.488l.778.363a22.341,22.341,0,0,0-1.378,4.581c-.237,2.24-3.863,12.375-3.5,13.786s-1.564,5.773-1.809,8-3.254,5.536-3.5,6.72a28.835,28.835,0,0,1-1.327,3.1,29.575,29.575,0,0,0-1.564,4.784c-1.209,4.953,13.144,5.773,13.144,5.773,21.233,3.888,25.1-12.011,25.1-12.011s2.654-14.133,3.618-15.215a1.69,1.69,0,0,0,.161-1.344h0a17.92,17.92,0,0,0-3.06-6.652c-.676-.786-.718-2.806-.609-4.615a10.669,10.669,0,0,0,1.817-.338c8.563-2.468,5.072-16.728,5.072-16.728s5.79-9.416,5.79-13.068,2.054-14.843,2.054-14.843c7.362-13.195,4.463-45.23,5.672-47.825S817.4,537,814.379,532.643s-1.809-16.136,0-19.551-1.809-15.215-1.809-15.215,3.5-22.822,3.381-26.389,3.018-14.014,3.018-14.014,3.136-5.418,2.409-7.066,2.409-5.917,1.572-7.776.718-7.658,2.291-11.073c.8-1.75,1.8-6.568,2.536-10.853.085-.473.169-.947.245-1.412,3.516,2.223,6.762,3.88,7.912,3.432,2.155-.845-1.276-11.834-3.626-18.68.406-.3.575-.533.406-.634-1.445-.947.161-5.19.161-5.19,8.529-5.021,5.629-8.791,2.9-10.988s-.964-8.453-1.775-10.988.972-13.972,2.417-22.3a15.96,15.96,0,0,0-.042-5.46c1.547-2.358,3.144-4.826,4.547-7.109,4.818-7.853,15.113-45.23,15.113-45.23l-.068-.194c1.006-1.986,1.758-3.6,2.164-4.674C861.248,283.164,855.458,258.651,854.495,252.979Zm-74.958-21.52.22-.1v.178Zm-153.7,196.947Zm106.9,204a3.861,3.861,0,0,1-1.53-.3Z" transform="translate(-114.246 -34.368)" fill="url(#linear-gradient-2)"/>
        <path id="Path_35" data-name="Path 35" d="M643.373,359.99c6.957,2.637,23.126,2.925,30.311,2.925h3.533l4.607-9.382-4.607-7.819s-4.226-1.166-9.839-2.181c-8.284-1.488-19.619-2.654-25.02.693C633.3,349.83,634.312,356.549,643.373,359.99Z" transform="translate(-114.246 -34.368)" fill="#fec2be"/>
        <path id="Path_36" data-name="Path 36" d="M673.676,362.914h3.533l4.607-9.382-4.6-7.819s-4.226-1.166-9.839-2.181C671.934,346.88,682.889,354.166,673.676,362.914Z" transform="translate(-114.246 -34.368)" opacity="0.1"/>
        <path id="Path_40" data-name="Path 40" d="M774.321,681.511c20.633,3.871,24.386-11.961,24.386-11.961s2.578-14.065,3.516-15.122a1.691,1.691,0,0,0,.161-1.336l-4.97,14.234s-4.1,8.554-19.34,7.269c-8.672-.735-12.941-2.341-15.012-3.592a30.967,30.967,0,0,0-1.521,4.759C760.374,680.691,774.321,681.511,774.321,681.511Z" transform="translate(-114.246 -34.368)" opacity="0.1"/>
        <path id="Path_41" data-name="Path 41" d="M790.381,659.239s-5.156.118-5.511-4.1Z" transform="translate(-114.246 -34.368)" opacity="0.1"/>
        <path id="Path_42" data-name="Path 42" d="M515.738,394.8l3.271.837-.719,3.322-3.034-.769Z" fill="#6c63ff"/>
        <path id="Path_43" data-name="Path 43" d="M515.738,394.8l3.271.837-.719,3.322-3.034-.769Z" opacity="0.1"/>
        <rect id="Rectangle_13" data-name="Rectangle 13" width="4.091" height="3.525" transform="translate(611.811 244.097) rotate(-75.72)" fill="#8076e6"/>
        <rect id="Rectangle_14" data-name="Rectangle 14" width="4.091" height="11.69" transform="translate(596.476 240.189) rotate(-75.72)" fill="#8076e6"/>
        <rect id="Rectangle_15" data-name="Rectangle 15" width="4.091" height="4.133" transform="translate(607.799 243.082) rotate(-75.72)" fill="#8076e6"/>
        <path id="Path_44" data-name="Path 44" d="M711.907,270.079c-.27.127-.533.262-.795.372l.659.169-1.014,3.964-5.012-1.276a5.917,5.917,0,0,1,.516-5.57,6.99,6.99,0,0,1,4.226-3.094,21.969,21.969,0,0,0,3.136-1.166Z" transform="translate(-114.246 -34.368)" fill="#8076e6"/>
        <path id="Path_45" data-name="Path 45" d="M723.867,287.2l1.53.4a1.936,1.936,0,0,0,2.358-1.4l1.707-6.83-3.381-.845Z" transform="translate(-114.246 -34.368)" fill="#8076e6"/>
        <path id="Path_46" data-name="Path 46" d="M722.7,253.25c-1.167,4.564-4.556,8.123-9.137,10.228l6-23.583C722.608,243.943,723.884,248.685,722.7,253.25Z" transform="translate(-114.246 -34.368)" fill="#8076e6"/>
        <path id="Path_47" data-name="Path 47" d="M721.737,286.655a1.936,1.936,0,0,1-1.395-2.35l1.741-6.838-11.327-2.882-34.546,135.7a22.535,22.535,0,0,1-7.362,28.925l-.8,3.161,15.325,3.931,40.5-159.07Z" transform="translate(-114.246 -34.368)" fill="#8076e6"/>
        <path id="Path_48" data-name="Path 48" d="M720.343,284.3a1.936,1.936,0,0,0,1.395,2.35l2.13.541,2.215-8.706-4-1.023Z" transform="translate(-114.246 -34.368)" fill="#8076e6"/>
        <path id="Path_49" data-name="Path 49" d="M706.252,267.737a7.058,7.058,0,0,1,4.226-3.094,22.522,22.522,0,0,0,3.127-1.167l6.01-23.583a26.871,26.871,0,0,0-14.953-9.535c-12.4-3.161-24.42,1.969-26.829,11.453-1.141,4.471.059,9.112,2.941,13.1A22.82,22.82,0,0,0,684.6,259l.059.186a7.219,7.219,0,0,1-.727,8.571l-75.786-19.3-17.1,67.182a23.194,23.194,0,0,1,20.075-4.514c12.772,3.254,20.286,17.032,16.787,30.768s-16.652,22.247-29.424,19.035a23.186,23.186,0,0,1-15.527-13.583l-17.556,68.94,67.131,17.083a23.144,23.144,0,0,1-4.294-19.847c3.254-12.763,17.024-20.286,30.768-16.787a26.431,26.431,0,0,1,17.2,13.55l34.546-135.7-4.962-1.276a5.917,5.917,0,0,1,.456-5.57Z" transform="translate(-114.246 -34.368)" fill="#61b0ff"/>
        <path id="Path_50" data-name="Path 50" d="M711.763,270.62l.144-.541c-.262.127-.524.262-.795.38Z" transform="translate(-114.246 -34.368)" fill="#6c63ff"/>
        <path id="Path_53" data-name="Path 53" d="M712.744,266.8l-.794.38.651.161-1.006,3.99-5.012-1.276a5.866,5.866,0,0,1,.507-5.57,7.033,7.033,0,0,1,4.226-3.094,21.872,21.872,0,0,0,3.128-1.167Z" transform="translate(-114.246 -34.368)" fill="#8076e6"/>
        <path id="Path_59" data-name="Path 59" d="M712.6,267.349l.135-.549c-.262.127-.524.262-.786.38Z" transform="translate(-114.246 -34.368)" fill="#8076e6"/>
        <path id="Path_61" data-name="Path 61" d="M772.115,248.93c.744-.3,51.739-21.368,44.714-25.552-4.167-2.485-9.3-13.017-12.814-21.258-2.451-5.756-4.116-10.4-4.116-10.4s-40.928-7.269-26.279,17.818a46.488,46.488,0,0,1,5.165,12.358C782.96,238.99,772.453,248.618,772.115,248.93Z" transform="translate(-114.246 -34.368)" fill="#fec2be"/>
        <path id="Path_62" data-name="Path 62" d="M773.62,209.541a46.493,46.493,0,0,1,5.165,12.358,28.578,28.578,0,0,0,24.166-16.981,27.231,27.231,0,0,0,1.065-2.8c-2.451-5.756-4.116-10.4-4.116-10.4S758.971,184.454,773.62,209.541Z" transform="translate(-114.246 -34.368)" opacity="0.1"/>
        <path id="Path_63" data-name="Path 63" d="M748.177,192.424a28.6,28.6,0,1,0,1.116-7.92,28.6,28.6,0,0,0-1.116,7.92Z" transform="translate(-114.246 -34.368)" fill="#fec2be"/>
        <path id="Path_64" data-name="Path 64" d="M720.588,414.061c2.992,2.722,4.142,7.9,4.142,7.9s14.074,9.611,13.135,3.516,7.269-30.717,7.269-30.717L744.2,428.3s45.01-2.113,48.3-5.393S815,413.334,815,413.334s5.917,4.725,11.293,8.309c.718-4.049,1.251-7.607,1.251-7.607l-19.348-15.6-48.3-12.679L741.736,379.9,724.028,407.8a70.921,70.921,0,0,0-3.44,6.263Z" transform="translate(-114.246 -34.368)" opacity="0.1"/>
        <g id="Group_16" data-name="Group 16">
          <path id="Path_37" data-name="Path 37" d="M749.978,247.764l-2.029-2.35s-10.473,16.567-11.572,22.822-2.536,13.44-2.536,13.44-2.654,8.131-4.378,11.724-3.28,7.033-3.432,8.6.625,5-2.663,7.193-4.057,8.131-4.057,8.131-11.884,11.563-18.139,11.834-24.225,3.44-23.6,6.568-7.5,5-10.786,5.782,21.132,10.143,6.88,22.2c0,0,9.061,1.876,10,4.057s10.473-1.243,10.473-1.243,2.037-4.852,9.07-5.165,10.625-3.44,10.625-3.905,7.033-4.378,10.988-5.469,9.061-1.564,9.222-2.663,23.448-101.592,23.448-101.592Z" transform="translate(-114.246 -34.368)" fill="#6a6868"/>
          <g id="Group_14" data-name="Group 14">
            <path id="Path_60" data-name="Path 60" d="M700.724,520.683c2.536,3.863,5.511,20.751,5.511,20.751s1.995,3.863,1.876,7.151,1.876,9.3,1.876,9.3l6.568,24.268s-.71,6.449,1.758,10.988,2.223,3.161,1.057,11.132,1.4,15.358,5.621,17.751-1.876,7.852-1.876,7.852,26.964,7.269,32.593,2.815-2.933-26.5-2.933-26.5,1.412-18.52.473-21.216-4.928-25.671-4.928-25.671-2.46-10.439-1.521-12.2-.583-6.762-.583-6.762-3.99-5.629-3.635-7.388-1.175-4.919-1.175-4.919,11.935-18.342,10.878-21.783.465-8.909.465-8.909l3.33-5.7c2.223-3.8,4.911-8.36,5.815-9.78,1.15-1.809,3.922-9.5,5.469-13.938l1.1-3.178s1.876,34.47,3.516,37.986,4.1,31.275,4.1,31.275a19.44,19.44,0,0,1,1.175,7.734c-.237,4.336,3.753,23.211,3.753,23.211s1.758,13.364.583,16.905-.237,29.432-.237,29.432-6.449,5.072-8.089,8.909.237,14.369.237,14.369,18.756,9.382,27.048,6.923,4.919-16.652,4.919-16.652,5.629-9.374,5.629-13.009,2.046-14.733,2.046-14.733c7.151-13.127,4.336-45.01,5.511-47.588s-2.468-12.2-5.393-16.533-1.758-16.06,0-19.441-1.809-15.139-1.809-15.139,3.381-22.746,3.28-26.262,2.933-13.947,2.933-13.947,3.043-5.393,2.341-7.041,2.341-5.858,1.521-7.734.71-7.607,2.232-10.988c.778-1.741,1.75-6.542,2.536-10.794.718-4.049,1.251-7.607,1.251-7.607l-19.348-15.6-48.3-12.679L741.736,379.9l-17.708,27.894a70.913,70.913,0,0,0-3.44,6.28c-1.395,2.9-2.637,6.128-2.417,8.14a11.251,11.251,0,0,1-1.64,7.269s-10.557,33.4-10.321,43.024-3.753,30.708-3.753,30.708S698.121,516.8,700.724,520.683Z" transform="translate(-114.246 -34.368)" fill="#ceddf9"/>
            <path id="Path_65" data-name="Path 65" d="M719.109,411.416c3.753,2.341,5.156,8.672,5.156,8.672s14.065,9.611,13.127,3.516,7.269-30.717,7.269-30.717l-.938,33.532s45.019-2.1,48.29-5.393,22.509-9.611,22.509-9.611,16.652,13.364,19.695,12.189-5.393-23.913-5.393-23.913L820.16,266.52s2.341-39.626-1.175-41.038a5.073,5.073,0,0,1-1.479-.921c-2.316-2.079-3.009-6.306-3.212-9.856-.228-4.226-5.858-2.113-5.858-2.113l3.28,4.226-29.052,17.666-.254.152a32.11,32.11,0,0,0-3.491-1.581c-2.536-.989-5.993-1.919-8.233-1a7.962,7.962,0,0,0-3.077,2.772,34.841,34.841,0,0,0-3.956,8.013l-10.523,17.81s-5.393,23.667-5.393,24.623-1.64,22.509-3.516,24.851-3.753,14.065-3.051,17.581S740,344.361,740,344.361c-7.734,6.331-11.715,27.894-11.715,27.894s-12.223,24.175-13.186,26.964S715.356,409.108,719.109,411.416Z" transform="translate(-114.246 -34.368)" fill="#fff"/>
          </g>
        </g>
        <path id="Path_66" data-name="Path 66" d="M782.664,235.415c2.849,4.226,11.081,10.143,11.081,10.143l23.76-20.075c-2.316-2.079-3.009-6.306-3.212-9.864-.228-4.226-5.858-2.1-5.858-2.1l.685.845a3.787,3.787,0,0,1-1.023,5.553Z" transform="translate(-114.246 -34.368)" opacity="0.1"/>
        <path id="Path_67" data-name="Path 67" d="M782.664,234.476c2.849,4.226,11.081,10.143,11.081,10.143l23.76-20.075c-2.316-2.079-3.009-6.306-3.212-9.856-.228-4.226-5.858-2.113-5.858-2.113l.685.845a3.778,3.778,0,0,1-1.023,5.545Z" transform="translate(-114.246 -34.368)" fill="#fff"/>
        <path id="Path_68" data-name="Path 68" d="M771.676,237.638c3.068,3.668,7.421,7.836,7.219,5.748s2.595-6.695,4.378-8.757a12.975,12.975,0,0,0-8.52.237A7.9,7.9,0,0,0,771.676,237.638Z" transform="translate(-114.246 -34.368)" opacity="0.1"/>
        <path id="Path_69" data-name="Path 69" d="M771.211,236.226c3.068,3.677,7.413,7.836,7.21,5.756s2.308-5.469,4.091-7.531c-2.536-.989-5.984-1.919-8.233-.989a7.861,7.861,0,0,0-3.068,2.764Z" transform="translate(-114.246 -34.368)" fill="#fff"/>
        <circle id="Ellipse_4" data-name="Ellipse 4" cx="1.876" cy="1.876" r="1.876" transform="translate(662.772 217.613)" fill="#ff718d"/>
        <circle id="Ellipse_5" data-name="Ellipse 5" cx="1.876" cy="1.876" r="1.876" transform="translate(648.546 268.253)" fill="#ff718d"/>
        <circle id="Ellipse_6" data-name="Ellipse 6" cx="1.876" cy="1.876" r="1.876" transform="translate(632.452 319.527)" fill="#ff718d"/>
        <circle id="Ellipse_7" data-name="Ellipse 7" cx="1.876" cy="1.876" r="1.876" transform="translate(631.979 375.323)" fill="#ff718d"/>
        <circle id="Ellipse_8" data-name="Ellipse 8" cx="1.876" cy="1.876" r="1.876" transform="translate(654.488 241.526)" fill="#ff718d"/>
        <g id="Group_17" data-name="Group 17">
          <circle id="Ellipse_9" data-name="Ellipse 9" cx="1.876" cy="1.876" r="1.876" transform="translate(641.826 293.577)" fill="#ff718d"/>
        </g>
        <circle id="Ellipse_10" data-name="Ellipse 10" cx="1.876" cy="1.876" r="1.876" transform="translate(629.477 344.69)" fill="#ff718d"/>
        <circle id="Ellipse_11" data-name="Ellipse 11" cx="1.876" cy="1.876" r="1.876" transform="translate(632.292 381.578)" fill="#ff718d"/>
        <path id="Path_70" data-name="Path 70" d="M817.506,225.686s-.313-2.815,3.745,2.037,11.724,9.061,11.724,9.061,17.353,12.2,18.292,17.818,6.559,30.015,3.592,38.138S829.2,339.8,829.2,339.8s5.917,7.041,4.539,15.325-3.128,19.695-2.35,22.2-.938,8.749,1.691,10.938,5.469,5.917-2.815,10.938c0,0-1.564,4.226-.161,5.165s-20.785,10.625-29.584,5.469-24.513-46.422-24.851-55.644,4.843-39.727,7.658-46.9,11.259-35.171,14.851-41.418S817.506,225.686,817.506,225.686Z" transform="translate(-114.246 -34.368)" opacity="0.1"/>
        <path id="Path_72" data-name="Path 72" d="M824.691,252.295s-13.44,14.851-12.975,24.7C811.716,276.993,811.564,261.043,824.691,252.295Z" transform="translate(-114.246 -34.368)" opacity="0.1"/>
        <path id="Path_73" data-name="Path 73" d="M806.095,276.68c0,.465-9.07,34.225-8.6,38.451s-2.663,16.719-2.663,16.719l-4.226-1.09s3.28-17.353,3.905-23.76S806.095,276.68,806.095,276.68Z" transform="translate(-114.246 -34.368)" opacity="0.1"/>
        <path id="Path_74" data-name="Path 74" d="M802.494,372.964c.313.465,21.419,24.377,15.477,26.1S802.494,372.964,802.494,372.964Z" transform="translate(-114.246 -34.368)" opacity="0.1"/>
        <path id="Path_75" data-name="Path 75" d="M819.847,366.845c.465.313,8.453,17.193,9.374,12.679s-6.872,12.349-8.123-.152Z" transform="translate(-114.246 -34.368)" opacity="0.1"/>
        <path id="Path_76" data-name="Path 76" d="M779.334,231.036s-8.715-5.317-19.661,8.284c0,0-7.971,4.531-10.312,5.629s-5,30.167-5,30.167-5.156,12.5-3.753,19.695-4.057,31.883-4.057,31.883-9.078,44.376-8.774,45.644,9.222-13.913,9.07-21.419,7.5-30.945,8.6-32.357,8.6-41.57,8.6-41.57,6.094-17.041,10-22.67,8.757-16.254,10.786-18.131a20.658,20.658,0,0,1,4.843-3.127Z" transform="translate(-114.246 -34.368)" opacity="0.1"/>
        <path id="Path_77" data-name="Path 77" d="M779.444,231.036s-9.771-5.317-20.709,8.284c0,0-7.979,4.531-10.321,5.629s-5,30.167-5,30.167-5.156,12.5-3.753,19.695-4.057,31.883-4.057,31.883-9.07,44.393-8.757,45.644,9.222-13.913,9.07-21.419,7.5-30.945,8.6-32.357,8.622-41.57,8.622-41.57,6.094-17.041,10-22.67,8.757-16.254,10.786-18.131a19.211,19.211,0,0,1,5.782-3.127Z" transform="translate(-114.246 -34.368)" fill="#707070"/>
        <path id="Path_79" data-name="Path 79" d="M749.471,446.35c2.773,5.917,5.072,35.822,6.61,45.3,2.223-3.8,4.911-8.36,5.815-9.78,1.15-1.809,3.922-9.5,5.469-13.938-1.767-4.294-6.644-16.6-6.644-21.132,0-5.511-8.909-12.425-8.909-12.425S746.191,439.318,749.471,446.35Z" transform="translate(-114.246 -34.368)" opacity="0.1"/>
        <path id="Path_80" data-name="Path 80" d="M809.256,538.138s-20.633-8.791-26.727-2.536S809.256,538.138,809.256,538.138Z" transform="translate(-114.246 -34.368)" opacity="0.1"/>
        <path id="Path_81" data-name="Path 81" d="M797.651,541.654s20.87,11.724,13.719,13.685S797.651,541.654,797.651,541.654Z" transform="translate(-114.246 -34.368)" opacity="0.1"/>
        <path id="Path_82" data-name="Path 82" d="M735.287,531.46s8.909.583,5.511,2.341S735.287,531.46,735.287,531.46Z" transform="translate(-114.246 -34.368)" opacity="0.1"/>
        <path id="Path_83" data-name="Path 83" d="M724.146,534.156c.118.583,25.907,8.909,20.87,12.679S724.146,534.156,724.146,534.156Z" transform="translate(-114.246 -34.368)" opacity="0.1"/>
        <path id="Path_84" data-name="Path 84" d="M806.2,605.9c-3.863-.592-25.434-10.557-17-3.381S806.2,605.9,806.2,605.9Z" transform="translate(-114.246 -34.368)" opacity="0.1"/>
        <path id="Path_85" data-name="Path 85" d="M795.537,613.755s-1.876,7.269-9.027,6.331S795.537,613.755,795.537,613.755Z" transform="translate(-114.246 -34.368)" opacity="0.1"/>
        <path id="Path_86" data-name="Path 86" d="M801.522,628.522c-1.293-.347-16.652-7.379-17-4.1s14.648,9.027,15.823,7.269a6.288,6.288,0,0,0,1.175-3.17Z" transform="translate(-114.246 -34.368)" opacity="0.1"/>
        <path id="Path_87" data-name="Path 87" d="M751.812,620.086c-1.876-.118-19.441-5.748-22.974-.71Z" transform="translate(-114.246 -34.368)" opacity="0.1"/>
        <path id="Path_88" data-name="Path 88" d="M735.87,623.366s-3.051-2.7-6.094-1.293S735.87,623.366,735.87,623.366Z" transform="translate(-114.246 -34.368)" opacity="0.1"/>
        <path id="Path_89" data-name="Path 89" d="M774.795,652.443a5.249,5.249,0,0,1-3.99,4.1Z" transform="translate(-114.246 -34.368)" opacity="0.1"/>
        <g id="Group_13" data-name="Group 13">
          <path id="Path_39" data-name="Path 39" d="M774.321,681.511c20.633,3.871,24.386-11.961,24.386-11.961s2.578-14.065,3.516-15.122a1.691,1.691,0,0,0,.161-1.336h0a18.4,18.4,0,0,0-2.975-6.627c-1.285-1.521-.237-7.852-.237-7.852L775.26,632.52s-2.113,4.8-2.341,7.033-3.753,12.307-3.381,13.719-1.521,5.739-1.758,7.971-3.161,5.511-3.381,6.678a27.621,27.621,0,0,1-1.293,3.094,30.966,30.966,0,0,0-1.521,4.759C760.374,680.691,774.321,681.511,774.321,681.511Z" transform="translate(-114.246 -34.368)" fill="#707070"/>
          <path id="Path_90" data-name="Path 90" d="M685.34,663.456c1.175,4.81,17.59,5.274,25.442,3.99s24.149-5.984,24.149-5.984,17.117-1.64,22.154-3.745,1.057-7.506,1.057-7.506V649.7c.118-1.961.473-9.07-.735-10.988-1.4-2.232-.583-9.5-.583-9.5s-24.268,4.691-24.741,2.468-4.226-5.393-5.976-6.094-3.051,5.858-3.051,5.858-10.988,9.382-11.724,12.78-8.453,5.156-8.453,5.156-11.724,3.28-14.775,4.919a5.671,5.671,0,0,0-3.229,4.556,12.679,12.679,0,0,0,.465,4.6Z" transform="translate(-114.246 -34.368)" fill="#707070"/>
        </g>
        <path id="Path_91" data-name="Path 91" d="M685.34,663.456c1.175,4.81,17.59,5.274,25.442,3.99s24.149-5.984,24.149-5.984,17.117-1.64,22.154-3.745,1.057-7.506,1.057-7.506V649.7l-24.513,5.435s-12.079,5.156-19.813,5.156c-6.762,0-21.892,2.764-28.908-1.429a12.68,12.68,0,0,0,.431,4.59Z" transform="translate(-114.246 -34.368)" opacity="0.1"/>
        <path id="Path_92" data-name="Path 92" d="M718.517,644.937s1.175,7.734,5.866,10.312Z" transform="translate(-114.246 -34.368)" opacity="0.1"/>
        <path id="Path_93" data-name="Path 93" d="M749.293,184.5a8.388,8.388,0,0,0,1.395.583c2.2.592,4.345-.9,6.3-2.079s4.649-2.062,6.34-.524c2.206,2,.609,6.28,2.882,8.216,1.437,1.226,3.719.8,5.317,1.809s2.079,3.212,2.485,5.114,1.217,4.074,3.077,4.632,3.592-.668,5.427-.6c.38,0,.845.059,1.082-.211a1.141,1.141,0,0,0,.177-.845,18.067,18.067,0,0,1,.6-6.762,6.518,6.518,0,0,1,4.767-4.463c3.288-.507,6.052,2.375,7.988,5.072a83.068,83.068,0,0,1,5.545,8.926,5.727,5.727,0,0,1,.279.617,28.6,28.6,0,1,0-53.657-19.441Z" transform="translate(-114.246 -34.368)" opacity="0.1"/>
        <path id="Path_94" data-name="Path 94" d="M797.127,193.971c-1.936-2.722-4.7-5.6-8-5.072a6.483,6.483,0,0,0-4.759,4.455,17.9,17.9,0,0,0-.592,6.762,1.183,1.183,0,0,1-.186.845c-.262.279-.7.237-1.082.22-1.834-.068-3.66,1.124-5.427.6s-2.671-2.73-3.077-4.632-.845-4.074-2.485-5.114-3.88-.583-5.317-1.817c-2.274-1.927-.668-6.213-2.882-8.216-1.691-1.53-4.387-.651-6.339.533s-4.1,2.663-6.306,2.071c-.744-.2-1.412-.626-2.139-.9-3.474-1.327-7.979.921-10.836-1.462a8.377,8.377,0,0,1-2.164-3.745,23.827,23.827,0,0,1-1.581-5.976,7.988,7.988,0,0,1,1.589-5.824c1.86-2.189,5-2.739,7.379-4.353a18.55,18.55,0,0,0,4.717-5.562c1.336-2.071,2.629-4.226,4.581-5.689s4.691-2.189,6.872-1.082a7.607,7.607,0,0,0,2.257,1.073,4.666,4.666,0,0,0,2.493-.685c8.132-3.829,17.6-3.153,26.516-2.012a34.153,34.153,0,0,1,10.439,2.536c3.254,1.547,6.128,4.226,7.041,7.709.727,2.756.169,5.756,1.048,8.453.592,1.843,1.809,3.381,2.536,5.232,1.9,4.945-.372,10.371-1.336,15.578-1.048,5.689-.524,11.834-2.942,17.226-.473,1.057-1.006,2.908-2.2,2.215-.845-.516-1.741-3.516-2.248-4.455a82.139,82.139,0,0,0-5.579-8.909Z" transform="translate(-114.246 -34.368)" fill="#61b0ff"/>
        <path id="Path_95" data-name="Path 95" d="M848.645,285.589l4.226,12.037s-10.008,37.192-14.7,45.01-11.563,17.818-11.563,17.818-11.563,5.79-25.011,3.127S748.9,353.9,748.9,353.9s-3.288.625-5-1.876-10.65-3.77-10.65-3.77-10.312-15,2.35-21.258c0,0,1.564,3.44,8.284,1.1s8.748,1.868,8.748,1.868,10.988,2.189,17.041,1.412,21.258-1.1,22.822-2.35a2.012,2.012,0,0,1,2.815.161s3.745-1.4,5-2.815,2.975,1.564,2.975,1.564,2.189-1.251,1.564-2.815,2.029-7.5,2.029-7.5,1.251-3.914.473-7.041,3.905-14.369,3.905-14.369a19.9,19.9,0,0,0-.625-5.629c-.786-2.806,5.917-8.453,5.917-8.453s6.559-31.892,20.472-21.419S848.645,285.589,848.645,285.589Z" transform="translate(-114.246 -34.368)" opacity="0.1"/>
        <g id="Group_15" data-name="Group 15">
          <path id="Path_71" data-name="Path 71" d="M818.436,225.686s-.313-2.815,3.753,2.037,11.724,9.061,11.724,9.061,17.353,12.2,18.292,17.818,6.559,30.015,3.592,38.138S830.159,339.8,830.159,339.8s5.917,7.041,4.539,15.325-3.127,19.695-2.35,22.2-.938,8.749,1.691,10.938,5.469,5.917-2.815,10.938c0,0-1.564,4.226-.161,5.165s-20.785,10.625-29.584,5.469-24.513-46.422-24.851-55.644,4.843-39.727,7.658-46.9,11.259-35.171,14.851-41.418S818.436,225.686,818.436,225.686Z" transform="translate(-114.246 -34.368)" fill="#707070"/>
          <path id="Path_78" data-name="Path 78" d="M736.538,328.723s-18.6-12.189-27.589-6.17-23.667,14.539-9.222,20.709,34.461,4.987,34.461,4.987Z" transform="translate(-114.246 -34.368)" fill="#fec2be"/>
          <path id="Path_96" data-name="Path 96" d="M849.541,285.589l4.226,12.037s-10.008,37.192-14.7,45.01-11.555,17.818-11.555,17.818-11.563,5.79-25.011,3.128-52.677-9.687-52.677-9.687-3.28.625-5-1.876-10.642-3.77-10.642-3.77-10.312-15,2.35-21.258c0,0,1.564,3.44,8.284,1.1s8.748,1.868,8.748,1.868,10.988,2.189,17.04,1.412,21.258-1.1,22.822-2.35a2.012,2.012,0,0,1,2.815.161s3.745-1.4,5-2.815,2.975,1.564,2.975,1.564,2.189-1.251,1.564-2.815,2.029-7.5,2.029-7.5,1.251-3.914.465-7.041,3.914-14.369,3.914-14.369a19.89,19.89,0,0,0-.625-5.629c-.786-2.806,5.917-8.453,5.917-8.453s6.559-31.892,20.472-21.419S849.541,285.589,849.541,285.589Z" transform="translate(-114.246 -34.368)" fill="#707070"/>
        </g>
        <path id="Path_97" data-name="Path 97" d="M747.949,335.917c.152,1.1,3.592,5.469,2.341,6.255s-3.28.313-1.4,2.815,1.69,6.247.465,5.782-3.28-6.094-3.28-8.284S747.949,335.917,747.949,335.917Z" transform="translate(-114.246 -34.368)" opacity="0.1"/>
        <path id="Path_98" data-name="Path 98" d="M794.371,333.415s.938,10.946,8.63,14.074S794.371,333.415,794.371,333.415Z" transform="translate(-114.246 -34.368)" opacity="0.1"/>
        <path id="Path_99" data-name="Path 99" d="M810.313,329.653c.465.161,10.938,5.79,6.255,9.07S810.313,329.653,810.313,329.653Z" transform="translate(-114.246 -34.368)" opacity="0.1"/>
        <path id="Path_100" data-name="Path 100" d="M810.938,321.851s15.316,3.127,10.143,5.782S810.938,321.851,810.938,321.851Z" transform="translate(-114.246 -34.368)" opacity="0.1"/>
        <g id="Group_6" data-name="Group 6" opacity="0.1">
          <path id="Path_101" data-name="Path 101" d="M784.405,190.675a6.538,6.538,0,0,1,4.759-4.455c3.3-.507,6.061,2.375,8,5.072a83.066,83.066,0,0,1,5.545,8.926c.507.938,1.369,3.93,2.248,4.446,1.192.7,1.69-1.15,2.2-2.206,2.417-5.376,1.893-11.538,2.942-17.227.617-3.322,1.758-6.762,2.012-10.059.363,4.091-1.242,8.393-2.012,12.552-1.048,5.689-.524,11.834-2.942,17.235-.473,1.057-1.006,2.908-2.2,2.206-.845-.516-1.741-3.508-2.248-4.446a83.077,83.077,0,0,0-5.545-8.926c-1.936-2.713-4.7-5.6-8-5.072a6.483,6.483,0,0,0-4.759,4.455,12.4,12.4,0,0,0-.626,3.516,16.365,16.365,0,0,1,.626-6.018Z" transform="translate(-114.246 -34.368)"/>
          <path id="Path_102" data-name="Path 102" d="M735.541,175.815a8.36,8.36,0,0,0,2.164,3.753c2.857,2.384,7.362.135,10.836,1.462.727.27,1.395.7,2.139.9,2.206.583,4.362-.9,6.306-2.079s4.657-2.054,6.34-.524c2.215,2,.609,6.28,2.882,8.216,1.437,1.226,3.719.845,5.317,1.817s2.079,3.2,2.485,5.072,1.209,4.074,3.077,4.632,3.592-.659,5.427-.592c.38,0,.845.059,1.082-.22a.793.793,0,0,0,.127-.237c0,.634,0,1.259.059,1.885a1.192,1.192,0,0,1-.186.845c-.262.27-.7.228-1.082.211-1.834-.059-3.66,1.124-5.427.6s-2.671-2.722-3.077-4.632-.845-4.074-2.485-5.072-3.88-.592-5.317-1.817c-2.274-1.936-.668-6.221-2.882-8.216-1.69-1.538-4.387-.659-6.339.524s-4.1,2.663-6.306,2.079c-.744-.2-1.412-.634-2.139-.9-3.474-1.327-7.979.921-10.836-1.462a8.4,8.4,0,0,1-2.164-3.753,23.856,23.856,0,0,1-1.581-5.968,9.662,9.662,0,0,1,.051-2.1,25.145,25.145,0,0,0,1.53,5.57Z" transform="translate(-114.246 -34.368)"/>
        </g>
      </g>
    </g>
  </g>
</svg>
